<svg width="74" height="17" viewBox="0 0 74 17" fill="none" xmlns="http://www.w3.org/2000/svg">
<path d="M0.884576 0.435547H10.8476V2.29028H6.92479V12.7458H4.7746V2.29028H0.868164L0.884576 0.435547ZM10.4209 3.83316H12.2592V5.55659H12.292C12.3577 5.31039 12.4726 5.0806 12.6367 4.85081C12.8009 4.62102 12.9978 4.40764 13.244 4.22709C13.4738 4.03012 13.7364 3.8824 14.0319 3.76751C14.3109 3.65261 14.6064 3.58696 14.9018 3.58696C15.1316 3.58696 15.2957 3.60337 15.3778 3.60337C15.4599 3.61979 15.5583 3.6362 15.6404 3.6362V5.52377C15.5091 5.49094 15.3614 5.47452 15.2137 5.45811C15.0659 5.4417 14.9346 5.42528 14.7869 5.42528C14.4586 5.42528 14.1468 5.49094 13.8513 5.62224C13.5559 5.75355 13.3097 5.95052 13.0799 6.19672C12.8665 6.45934 12.686 6.7712 12.5547 7.14871C12.4233 7.52623 12.3577 7.9694 12.3577 8.4618V12.6965H10.3881L10.4209 3.83316ZM24.6679 12.7458H22.7311V11.4983H22.6983C22.4521 11.9579 22.091 12.3026 21.615 12.5816C21.139 12.8607 20.6466 12.992 20.1542 12.992C18.9888 12.992 18.1353 12.7129 17.6101 12.122C17.0848 11.5476 16.8222 10.6612 16.8222 9.49586V3.83316H18.7918V9.2989C18.7918 10.0868 18.9396 10.6448 19.2514 10.9567C19.5469 11.2849 19.9736 11.4491 20.5153 11.4491C20.9256 11.4491 21.2703 11.3834 21.5493 11.2521C21.8284 11.1208 22.0581 10.9567 22.2223 10.7433C22.4028 10.5299 22.5177 10.2673 22.5998 9.97185C22.6819 9.67641 22.7147 9.34814 22.7147 9.00345V3.83316H24.6843V12.7458H24.6679ZM28.0163 9.88978C28.0819 10.4643 28.2953 10.8582 28.6728 11.1044C29.0503 11.3342 29.5099 11.4491 30.0352 11.4491C30.2157 11.4491 30.4291 11.4327 30.6589 11.3998C30.8887 11.367 31.1185 11.3178 31.3154 11.2357C31.5288 11.1536 31.6929 11.0387 31.8242 10.8746C31.9556 10.7105 32.0212 10.5135 32.0048 10.2673C31.9884 10.0211 31.9063 9.80772 31.7258 9.64358C31.5452 9.47944 31.3318 9.36455 31.0692 9.24965C30.8066 9.15117 30.4947 9.06911 30.15 9.00345C29.8054 8.9378 29.4607 8.85573 29.0996 8.77366C28.7385 8.69159 28.3774 8.59311 28.0327 8.47822C27.688 8.36332 27.3926 8.2156 27.1135 8.00222C26.8509 7.80526 26.6211 7.55906 26.4734 7.2472C26.3093 6.93534 26.2272 6.57423 26.2272 6.11465C26.2272 5.62224 26.3421 5.22832 26.5883 4.90005C26.8181 4.57177 27.1299 4.30916 27.491 4.1122C27.8521 3.91523 28.2625 3.76751 28.7057 3.68544C29.1488 3.60337 29.5756 3.57054 29.9695 3.57054C30.4291 3.57054 30.8722 3.61979 31.2826 3.71827C31.6929 3.81675 32.0869 3.96447 32.4151 4.19426C32.7598 4.40764 33.0388 4.70308 33.2522 5.04777C33.482 5.39245 33.6133 5.81921 33.679 6.31162H31.6273C31.5288 5.83562 31.3154 5.52377 30.9871 5.35963C30.6425 5.1955 30.2649 5.11343 29.8218 5.11343C29.6905 5.11343 29.5099 5.12984 29.3294 5.14625C29.1324 5.17908 28.9683 5.21191 28.7877 5.27756C28.6236 5.34322 28.4759 5.4417 28.361 5.55659C28.2461 5.67149 28.1804 5.83562 28.1804 6.03259C28.1804 6.27879 28.2625 6.45934 28.4266 6.60706C28.5908 6.75478 28.8041 6.86968 29.0832 6.98458C29.3458 7.08306 29.6576 7.16513 30.0023 7.23078C30.347 7.29644 30.7081 7.3785 31.0692 7.46057C31.4303 7.54264 31.775 7.64112 32.1197 7.75602C32.4644 7.87091 32.7762 8.01864 33.0388 8.23201C33.3015 8.42898 33.5313 8.67518 33.6954 8.97063C33.8595 9.26607 33.9416 9.64358 33.9416 10.0703C33.9416 10.5956 33.8267 11.0387 33.5805 11.4163C33.3343 11.7774 33.0224 12.0892 32.6449 12.319C32.2674 12.5488 31.8242 12.7129 31.3647 12.8278C30.8887 12.9263 30.4291 12.992 29.9695 12.992C29.4114 12.992 28.8862 12.9263 28.4102 12.795C27.9342 12.6637 27.5075 12.4667 27.1628 12.2205C26.8181 11.9579 26.5391 11.646 26.3421 11.2521C26.1451 10.8746 26.0302 10.415 26.0138 9.87337H27.9999V9.88978H28.0163ZM34.4997 3.83316H35.9933V1.14133H37.9629V3.81675H39.7356V5.27756H37.9629V10.0375C37.9629 10.2509 37.9793 10.415 37.9958 10.5792C38.0122 10.7269 38.0614 10.8582 38.1107 10.9567C38.1763 11.0552 38.2748 11.1372 38.3897 11.1865C38.521 11.2357 38.6851 11.2685 38.9149 11.2685C39.0462 11.2685 39.194 11.2685 39.3253 11.2521C39.4566 11.2357 39.6043 11.2193 39.7356 11.1865V12.7129C39.5222 12.7458 39.3088 12.7622 39.0955 12.7786C38.8821 12.8114 38.6851 12.8114 38.4553 12.8114C37.9301 12.8114 37.5198 12.7622 37.2079 12.6637C36.896 12.5652 36.6498 12.4175 36.4693 12.2369C36.2887 12.04 36.1738 11.8102 36.1082 11.5311C36.0425 11.2521 36.0097 10.9074 35.9933 10.5463V5.29397H34.4997V3.80034V3.83316ZM41.1143 3.83316H42.9691V5.04777H43.0019C43.2809 4.52253 43.6585 4.16144 44.1509 3.93164C44.6433 3.70185 45.1685 3.58696 45.7594 3.58696C46.4652 3.58696 47.0725 3.70186 47.5977 3.96447C48.123 4.21068 48.5497 4.53895 48.8944 4.98211C49.2391 5.40887 49.5017 5.91769 49.6658 6.49217C49.83 7.06665 49.9285 7.69036 49.9285 8.33049C49.9285 8.9378 49.8464 9.51227 49.6987 10.0703C49.5345 10.6284 49.3047 11.1372 48.9929 11.564C48.681 11.9907 48.2871 12.3354 47.7947 12.598C47.3023 12.8606 46.7442 12.992 46.0877 12.992C45.8086 12.992 45.5132 12.9591 45.2342 12.9099C44.9551 12.8607 44.6761 12.7786 44.4135 12.6637C44.1509 12.5488 43.9047 12.4011 43.6913 12.2205C43.4615 12.04 43.2809 11.8266 43.1332 11.5968H43.1004V16.0449H41.1308V3.83316H41.1143ZM47.9917 8.29767C47.9917 7.90374 47.9424 7.50981 47.8275 7.1323C47.729 6.75479 47.5649 6.42651 47.3515 6.13107C47.1381 5.83562 46.8755 5.60583 46.5801 5.42528C46.2682 5.24474 45.9071 5.16267 45.5132 5.16267C44.6925 5.16267 44.0688 5.4417 43.642 6.01618C43.2317 6.59065 43.0183 7.36209 43.0183 8.31408C43.0183 8.77366 43.0676 9.184 43.1825 9.56151C43.2974 9.93903 43.4451 10.2673 43.6749 10.5463C43.8882 10.8254 44.1509 11.0387 44.4627 11.2029C44.7746 11.367 45.1193 11.4491 45.5296 11.4491C45.9892 11.4491 46.3503 11.3506 46.6621 11.17C46.974 10.9895 47.2202 10.7433 47.4336 10.4643C47.6306 10.1688 47.7783 9.84055 47.8603 9.46303C47.9424 9.06911 47.9917 8.69159 47.9917 8.29767ZM51.4549 0.435547H53.4246V2.29028H51.4549V0.435547ZM51.4549 3.83316H53.4246V12.7458H51.4549V3.83316ZM55.1808 0.435547H57.1504V12.7458H55.1808V0.435547ZM63.1578 12.992C62.452 12.992 61.8119 12.8771 61.2539 12.6309C60.6958 12.3847 60.2362 12.0728 59.8423 11.6625C59.4648 11.2521 59.1693 10.7433 58.9724 10.1688C58.7754 9.59434 58.6605 8.95421 58.6605 8.28125C58.6605 7.60829 58.759 6.98458 58.9724 6.4101C59.1693 5.83563 59.4648 5.34322 59.8423 4.91646C60.2198 4.50612 60.6958 4.17785 61.2539 3.94806C61.8119 3.71827 62.452 3.58696 63.1578 3.58696C63.8636 3.58696 64.5037 3.70186 65.0618 3.94806C65.6199 4.17785 66.0795 4.50612 66.4734 4.91646C66.8509 5.3268 67.1463 5.83563 67.3433 6.4101C67.5403 6.98458 67.6552 7.60829 67.6552 8.28125C67.6552 8.97062 67.5567 9.59434 67.3433 10.1688C67.1299 10.7433 66.8509 11.2357 66.4734 11.6625C66.0959 12.0728 65.6199 12.4011 65.0618 12.6309C64.5037 12.8607 63.88 12.992 63.1578 12.992ZM63.1578 11.4327C63.5846 11.4327 63.9785 11.3342 64.2904 11.1536C64.6186 10.9731 64.8648 10.7269 65.0782 10.4314C65.2916 10.136 65.4393 9.79131 65.5378 9.43021C65.6363 9.05269 65.6855 8.67518 65.6855 8.28125C65.6855 7.90374 65.6363 7.52623 65.5378 7.14871C65.4393 6.7712 65.2916 6.44293 65.0782 6.14748C64.8648 5.85204 64.6022 5.62225 64.2904 5.4417C63.9621 5.26115 63.5846 5.16267 63.1578 5.16267C62.7311 5.16267 62.3372 5.26115 62.0253 5.4417C61.697 5.62225 61.4508 5.86845 61.2374 6.14748C61.0241 6.44293 60.8763 6.7712 60.7779 7.14871C60.6794 7.52623 60.6301 7.90374 60.6301 8.28125C60.6301 8.67518 60.6794 9.05269 60.7779 9.43021C60.8763 9.80772 61.0241 10.136 61.2374 10.4314C61.4508 10.7269 61.7134 10.9731 62.0253 11.1536C62.3536 11.3506 62.7311 11.4327 63.1578 11.4327ZM68.246 3.83316H69.7397V1.14133H71.7093V3.81675H73.482V5.27756H71.7093V10.0375C71.7093 10.2509 71.7257 10.415 71.7422 10.5792C71.7586 10.7269 71.8078 10.8582 71.857 10.9567C71.9227 11.0552 72.0212 11.1372 72.1361 11.1865C72.2674 11.2357 72.4315 11.2685 72.6613 11.2685C72.7926 11.2685 72.9403 11.2685 73.0717 11.2521C73.203 11.2357 73.3507 11.2193 73.482 11.1865V12.7129C73.2686 12.7458 73.0552 12.7622 72.8419 12.7786C72.6285 12.8114 72.4315 12.8114 72.2017 12.8114C71.6765 12.8114 71.2662 12.7622 70.9543 12.6637C70.6424 12.5652 70.3962 12.4175 70.2157 12.2369C70.0351 12.04 69.9202 11.8102 69.8546 11.5311C69.7889 11.2521 69.7561 10.9074 69.7397 10.5463V5.29397H68.246V3.80034V3.83316Z" fill="black"/>
</svg>
