<svg width="14" height="13" viewBox="0 0 14 13" fill="none" xmlns="http://www.w3.org/2000/svg">
<path d="M5.98326 1.26951C6.24048 0.477872 7.36044 0.477872 7.61765 1.26951L8.53668 4.09798C8.65171 4.45201 8.98163 4.69171 9.35388 4.69171H12.3279C13.1603 4.69171 13.5064 5.75685 12.833 6.24611L10.4269 7.9942C10.1258 8.213 9.99975 8.60084 10.1148 8.95487L11.0338 11.7833C11.291 12.575 10.385 13.2333 9.71156 12.744L7.30551 10.9959C7.00436 10.7771 6.59656 10.7771 6.2954 10.9959L3.88936 12.744C3.21595 13.2333 2.30989 12.575 2.56711 11.7833L3.48614 8.95487C3.60117 8.60084 3.47515 8.213 3.174 7.9942L0.767952 6.24611C0.0945461 5.75685 0.440631 4.69171 1.27301 4.69171H4.24704C4.61929 4.69171 4.9492 4.45201 5.06424 4.09798L5.98326 1.26951Z" fill="#F59E0B"/>
</svg>
